<?xml version="1.0" encoding="UTF-8" standalone="no"?>
<!DOCTYPE svg PUBLIC "-//W3C//DTD SVG 1.1//EN" "http://www.w3.org/Graphics/SVG/1.1/DTD/svg11.dtd">
<svg version="1.1" xmlns="http://www.w3.org/2000/svg" xmlns:xl="http://www.w3.org/1999/xlink" xmlns:dc="http://purl.org/dc/elements/1.1/" viewBox="909 520 120 120" width="120" height="120">
  <defs/>
  <g id="SVG_dark" stroke-opacity="1" fill-opacity="1" stroke-dasharray="none" fill="none" stroke="none">
    <title>SVG dark</title>
    <g id="SVG_dark_Layer_1">
      <title>Layer 1</title>
      <g id="Graphic_5">
        <title>path90822</title>
        <path d="M 947.9489 606.5321 C 946.4811 605.40036 944.1576 603.1519 942.8491 601.5971 C 940.6339 598.96485 938.5466 595.4055 937.1987 591.962 C 936.4479 590.0438 936.0355 589.2489 935.2978 588.29715 C 933.6981 586.2336 931.416 584.8636 928.8092 584.40186 C 928.3676 584.3237 925.3185 584.2776 920.5813 584.2776 L 913.0549 584.2776 L 912.9782 582.9476 C 912.88 581.2426 912.8795 578.7471 912.977 577.1525 L 913.0535 575.9017 L 920.7501 575.85596 L 928.4466 575.81025 L 929.5912 575.5013 C 931.5616 574.9694 933.2493 573.9778 934.6009 572.5577 C 935.8384 571.2575 936.2443 570.5516 937.311 567.8449 C 940.3986 560.0104 946.1478 553.69375 953.5651 549.9867 C 962.3659 545.58817 972.4417 545.21634 981.499 548.9559 L 982.6522 549.432 L 982.4304 549.80136 C 982.2471 550.1068 978.4921 556.6291 978.4628 556.693 C 978.4576 556.7047 977.6824 556.45364 976.7398 556.1365 C 973.8795 555.1743 971.7939 554.8405 968.642 554.8405 C 965.5524 554.8405 963.4609 555.16936 960.662 556.0952 C 950.6495 559.4073 943.8134 568.5528 943.4359 579.1407 C 943.2285 584.95815 944.97 590.5327 948.4632 595.2327 C 949.2394 596.2771 951.7058 598.839 952.7777 599.71426 L 953.3462 600.1785 L 951.2685 603.7763 C 950.1257 605.7551 949.176 607.3888 949.1581 607.40675 C 949.1401 607.4247 948.596 607.03115 947.9488 606.5322 Z" fill="#1700b3"/>
        <path d="M 947.9489 606.5321 C 946.4811 605.40036 944.1576 603.1519 942.8491 601.5971 C 940.6339 598.96485 938.5466 595.4055 937.1987 591.962 C 936.4479 590.0438 936.0355 589.2489 935.2978 588.29715 C 933.6981 586.2336 931.416 584.8636 928.8092 584.40186 C 928.3676 584.3237 925.3185 584.2776 920.5813 584.2776 L 913.0549 584.2776 L 912.9782 582.9476 C 912.88 581.2426 912.8795 578.7471 912.977 577.1525 L 913.0535 575.9017 L 920.7501 575.85596 L 928.4466 575.81025 L 929.5912 575.5013 C 931.5616 574.9694 933.2493 573.9778 934.6009 572.5577 C 935.8384 571.2575 936.2443 570.5516 937.311 567.8449 C 940.3986 560.0104 946.1478 553.69375 953.5651 549.9867 C 962.3659 545.58817 972.4417 545.21634 981.499 548.9559 L 982.6522 549.432 L 982.4304 549.80136 C 982.2471 550.1068 978.4921 556.6291 978.4628 556.693 C 978.4576 556.7047 977.6824 556.45364 976.7398 556.1365 C 973.8795 555.1743 971.7939 554.8405 968.642 554.8405 C 965.5524 554.8405 963.4609 555.16936 960.662 556.0952 C 950.6495 559.4073 943.8134 568.5528 943.4359 579.1407 C 943.2285 584.95815 944.97 590.5327 948.4632 595.2327 C 949.2394 596.2771 951.7058 598.839 952.7777 599.71426 L 953.3462 600.1785 L 951.2685 603.7763 C 950.1257 605.7551 949.176 607.3888 949.1581 607.40675 C 949.1401 607.4247 948.596 607.03115 947.9488 606.5322 Z" stroke="#a5a5a5" stroke-linecap="butt" stroke-linejoin="round" stroke-width="1.0503432"/>
      </g>
      <g id="Graphic_4">
        <title>path90861</title>
        <path d="M 964.6816 628.24616 C 952.7324 627.229 941.5194 621.7975 933.3397 613.0646 C 927.8361 607.18866 923.8151 599.8812 921.8253 592.13935 L 921.4303 590.60246 L 923.6036 590.57026 C 926.8744 590.52195 928.2276 590.913 929.7652 592.35124 C 930.6719 593.1993 931.0751 593.8197 931.7022 595.33154 C 935.2922 603.98694 941.824 611.1094 950.1994 615.5015 C 957.5546 619.3586 966.1384 620.7845 974.6122 619.5567 C 980.6165 618.68674 986.8305 616.18044 991.7737 612.6349 C 993.8445 611.1497 995.2991 609.8988 997.1394 608.0209 C 1000.1121 604.9874 1002.3675 601.8703 1004.1979 598.2656 C 1007.1944 592.3641 1008.5701 586.6239 1008.5701 580.0216 C 1008.5701 575.3932 1007.9954 571.7708 1006.5742 567.44206 C 1004.215 560.25633 999.7007 553.731 993.7656 548.9278 C 984.6104 541.5185 972.3569 538.5143 960.7803 540.84074 C 951.1341 542.77924 942.5224 548.218 936.6172 556.1011 C 934.7196 558.6343 933.199 561.2849 931.825 564.4546 C 931.4453 565.3306 930.9725 566.28285 930.7744 566.57076 C 930.226 567.36787 929.069 568.377 928.2425 568.7792 C 926.9708 569.398 926.3376 569.49985 923.7625 569.49985 L 921.4334 569.49985 L 921.6056 568.76096 C 921.8553 567.68944 922.4195 565.78454 922.9378 564.263 C 926.3251 554.319 933.1892 545.4887 942.0531 539.67195 C 948.5698 535.3955 955.3398 532.9427 963.3823 531.94433 C 965.7834 531.64626 971.4723 531.6473 973.9017 531.94563 C 982.0319 532.946 988.9594 535.4812 995.5374 539.86335 C 998.3546 541.7401 1000.7762 543.76886 1003.3404 546.40056 C 1015.4016 558.77894 1019.9192 576.8054 1015.1161 593.388 C 1010.9377 607.8137 1000.3386 619.48945 986.4343 624.9832 C 981.8854 626.78056 977.3287 627.8441 972.4251 628.2529 C 970.7859 628.3896 966.3239 628.3853 964.6816 628.2451 Z" fill="#1700b3"/>
        <path d="M 964.6816 628.24616 C 952.7324 627.229 941.5194 621.7975 933.3397 613.0646 C 927.8361 607.18866 923.8151 599.8812 921.8253 592.13935 L 921.4303 590.60246 L 923.6036 590.57026 C 926.8744 590.52195 928.2276 590.913 929.7652 592.35124 C 930.6719 593.1993 931.0751 593.8197 931.7022 595.33154 C 935.2922 603.98694 941.824 611.1094 950.1994 615.5015 C 957.5546 619.3586 966.1384 620.7845 974.6122 619.5567 C 980.6165 618.68674 986.8305 616.18044 991.7737 612.6349 C 993.8445 611.1497 995.2991 609.8988 997.1394 608.0209 C 1000.1121 604.9874 1002.3675 601.8703 1004.1979 598.2656 C 1007.1944 592.3641 1008.5701 586.6239 1008.5701 580.0216 C 1008.5701 575.3932 1007.9954 571.7708 1006.5742 567.44206 C 1004.215 560.25633 999.7007 553.731 993.7656 548.9278 C 984.6104 541.5185 972.3569 538.5143 960.7803 540.84074 C 951.1341 542.77924 942.5224 548.218 936.6172 556.1011 C 934.7196 558.6343 933.199 561.2849 931.825 564.4546 C 931.4453 565.3306 930.9725 566.28285 930.7744 566.57076 C 930.226 567.36787 929.069 568.377 928.2425 568.7792 C 926.9708 569.398 926.3376 569.49985 923.7625 569.49985 L 921.4334 569.49985 L 921.6056 568.76096 C 921.8553 567.68944 922.4195 565.78454 922.9378 564.263 C 926.3251 554.319 933.1892 545.4887 942.0531 539.67195 C 948.5698 535.3955 955.3398 532.9427 963.3823 531.94433 C 965.7834 531.64626 971.4723 531.6473 973.9017 531.94563 C 982.0319 532.946 988.9594 535.4812 995.5374 539.86335 C 998.3546 541.7401 1000.7762 543.76886 1003.3404 546.40056 C 1015.4016 558.77894 1019.9192 576.8054 1015.1161 593.388 C 1010.9377 607.8137 1000.3386 619.48945 986.4343 624.9832 C 981.8854 626.78056 977.3287 627.8441 972.4251 628.2529 C 970.7859 628.3896 966.3239 628.3853 964.6816 628.2451 Z" stroke="#a5a5a5" stroke-linecap="butt" stroke-linejoin="round" stroke-width="1.0503432"/>
      </g>
      <g id="Graphic_3">
        <title>path90937</title>
        <path d="M 960.4847 612.6552 C 958.6065 612.1736 956.585 611.48675 955.3858 610.92276 L 954.6612 610.5819 L 971.261 581.85407 C 980.3909 566.05376 987.9273 553.006 988.0086 552.85906 C 988.1542 552.5959 988.1758 552.60714 989.4529 553.6113 C 990.166 554.17196 991.5917 555.4785 992.6212 556.5148 C 994.4063 558.3117 994.4852 558.4109 994.327 558.65896 C 994.2359 558.802 987.1217 571.1151 978.5178 586.0214 C 963.9336 611.2887 962.8535 613.1232 962.5662 613.1168 C 962.3967 613.11294 961.46 612.90535 960.4847 612.6552 Z" fill="#fc6d09"/>
        <path d="M 960.4847 612.6552 C 958.6065 612.1736 956.585 611.48675 955.3858 610.92276 L 954.6612 610.5819 L 971.261 581.85407 C 980.3909 566.05376 987.9273 553.006 988.0086 552.85906 C 988.1542 552.5959 988.1758 552.60714 989.4529 553.6113 C 990.166 554.17196 991.5917 555.4785 992.6212 556.5148 C 994.4063 558.3117 994.4852 558.4109 994.327 558.65896 C 994.2359 558.802 987.1217 571.1151 978.5178 586.0214 C 963.9336 611.2887 962.8535 613.1232 962.5662 613.1168 C 962.3967 613.11294 961.46 612.90535 960.4847 612.6552 Z" stroke="#fc6d09" stroke-linecap="butt" stroke-linejoin="round" stroke-width="1.0503432"/>
      </g>
    </g>
  </g>
</svg>
