<?xml version="1.0" encoding="UTF-8" standalone="no"?>
<svg xmlns:dc="http://purl.org/dc/elements/1.1/" xmlns:cc="http://creativecommons.org/ns#" xmlns:rdf="http://www.w3.org/1999/02/22-rdf-syntax-ns#" xmlns:svg="http://www.w3.org/2000/svg" xmlns="http://www.w3.org/2000/svg" xmlns:sodipodi="http://sodipodi.sourceforge.net/DTD/sodipodi-0.dtd" xmlns:inkscape="http://www.inkscape.org/namespaces/inkscape" version="1.1" viewBox="0 0 50.57689 50.5769" stroke-miterlimit="10" id="svg2" inkscape:version="0.91 r13725" sodipodi:docname="favicon.svg" width="50.576889" height="50.5769" style="fill:none;stroke:none;stroke-linecap:square;stroke-miterlimit:10">
  
  
  <defs id="defs21"/>
  <path style="fill:#1700b3;fill-opacity:1;fill-rule:nonzero;stroke:#1700b3;stroke-width:0;stroke-linejoin:round;stroke-miterlimit:10;stroke-dasharray:none;stroke-opacity:1" d="m 31.77282,2.000005 8.640625,0 0,24.468753 c 0,3.364583 -0.760417,5.807292 -2.28125,7.328125 -1.520833,1.520833 -3.963542,1.796871 -7.328125,1.796871 l -11.03125,0 c -3.364583,0 -5.807292,-0.276038 -7.328125,-1.796871 -1.520833,-1.520833 -2.28125,-3.963542 -2.28125,-7.328125 l 0,-24.468753 8.640625,0 0,24.468753 c 0,1.927083 0.963542,2.890625 2.890625,2.890625 l 7.1875,0 c 1.927083,0 2.890625,-0.963542 2.890625,-2.890625 z" id="path4186" inkscape:connector-curvature="0" sodipodi:nodetypes="ccssssssccssssc"/>
  <path style="fill:#1700b3;fill-opacity:1;fill-rule:evenodd;stroke:#1700b3;stroke-width:2;stroke-linecap:butt;stroke-linejoin:miter;stroke-miterlimit:10;stroke-dasharray:none;stroke-opacity:1" d="m 25.288445,35.593753 0,8.983147" id="path4518" inkscape:connector-curvature="0"/>
  <circle style="fill:#1700b3;fill-opacity:1;fill-rule:evenodd;stroke:#1700b3;stroke-width:0;stroke-linecap:butt;stroke-linejoin:miter;stroke-miterlimit:10;stroke-dasharray:none;stroke-opacity:1" id="path4494" r="3.999999" cy="44.576897" cx="25.288446"/>
</svg>
