<?xml version="1.0" encoding="UTF-8" standalone="no"?>
<!DOCTYPE svg PUBLIC "-//W3C//DTD SVG 1.1//EN" "http://www.w3.org/Graphics/SVG/1.1/DTD/svg11.dtd">
<svg version="1.1" xmlns="http://www.w3.org/2000/svg" xmlns:xl="http://www.w3.org/1999/xlink" xmlns:dc="http://purl.org/dc/elements/1.1/" viewBox="0 0 800 400" width="800" height="400">
  <defs/>
  <g id="CETL" stroke-opacity="1" fill-opacity="1" stroke-dasharray="none" fill="none" stroke="none">
    <title>CETL</title>
    <g id="CETL_Layer_3">
      <title>Layer 3</title>
      <g id="Graphic_40">
        <title>path90822</title>
        <path d="M 162.23016 265.748 C 158.69443 263.02167 153.09716 257.60522 149.94512 253.8598 C 144.60886 247.5189 139.58056 238.9447 136.33364 230.64948 C 134.52491 226.02862 133.53164 224.11369 131.75439 221.82103 C 127.90087 216.85007 122.40343 213.54978 116.12373 212.4375 C 115.06013 212.24917 107.71489 212.1381 96.30321 212.1381 L 78.17254 212.1381 L 77.98796 208.93424 C 77.75145 204.8271 77.7502 198.8156 77.98511 194.97415 L 78.16938 191.96105 L 96.7099 191.85093 L 115.25043 191.7408 L 118.00766 190.99653 C 122.75431 189.71528 126.81978 187.32649 130.07577 183.90556 C 133.05675 180.77358 134.03466 179.07304 136.6043 172.5527 C 144.04205 153.67987 157.89164 138.46345 175.75937 129.53338 C 196.96002 118.93756 221.2321 118.04187 243.05063 127.05017 L 245.82848 128.19708 L 245.29427 129.0869 C 244.85257 129.8227 235.807 145.5346 235.73652 145.68849 C 235.724 145.71665 233.85653 145.11186 231.58583 144.34796 C 224.69562 142.03 219.67141 141.2259 212.07869 141.2259 C 204.63612 141.2259 199.59775 142.0181 192.85542 144.24845 C 168.7359 152.22713 152.26816 174.258 151.35873 199.7636 C 150.85903 213.7776 155.0543 227.20638 163.46914 238.52846 C 165.339 241.04427 171.28042 247.21572 173.86252 249.32418 L 175.23205 250.4425 L 170.2269 259.1094 C 167.47408 263.8762 165.18636 267.81168 165.1431 267.85495 C 165.09992 267.89812 163.789 266.95015 162.2301 265.74815 Z" fill="#1700b3"/>
        <path d="M 162.23016 265.748 C 158.69443 263.02167 153.09716 257.60522 149.94512 253.8598 C 144.60886 247.5189 139.58056 238.9447 136.33364 230.64948 C 134.52491 226.02862 133.53164 224.11369 131.75439 221.82103 C 127.90087 216.85007 122.40343 213.54978 116.12373 212.4375 C 115.06013 212.24917 107.71489 212.1381 96.30321 212.1381 L 78.17254 212.1381 L 77.98796 208.93424 C 77.75145 204.8271 77.7502 198.8156 77.98511 194.97415 L 78.16938 191.96105 L 96.7099 191.85093 L 115.25043 191.7408 L 118.00766 190.99653 C 122.75431 189.71528 126.81978 187.32649 130.07577 183.90556 C 133.05675 180.77358 134.03466 179.07304 136.6043 172.5527 C 144.04205 153.67987 157.89164 138.46345 175.75937 129.53338 C 196.96002 118.93756 221.2321 118.04187 243.05063 127.05017 L 245.82848 128.19708 L 245.29427 129.0869 C 244.85257 129.8227 235.807 145.5346 235.73652 145.68849 C 235.724 145.71665 233.85653 145.11186 231.58583 144.34796 C 224.69562 142.03 219.67141 141.2259 212.07869 141.2259 C 204.63612 141.2259 199.59775 142.0181 192.85542 144.24845 C 168.7359 152.22713 152.26816 174.258 151.35873 199.7636 C 150.85903 213.7776 155.0543 227.20638 163.46914 238.52846 C 165.339 241.04427 171.28042 247.21572 173.86252 249.32418 L 175.23205 250.4425 L 170.2269 259.1094 C 167.47408 263.8762 165.18636 267.81168 165.1431 267.85495 C 165.09992 267.89812 163.789 266.95015 162.2301 265.74815 Z" stroke="#1700b3" stroke-linecap="butt" stroke-linejoin="round" stroke-width="2.530216"/>
      </g>
      <g id="Graphic_41">
        <title>path90861</title>
        <path d="M 202.5383 318.0559 C 173.75353 315.60556 146.7419 302.5215 127.03764 281.48433 C 113.7797 267.3296 104.09325 249.7263 99.30011 231.07666 L 98.3486 227.3744 L 103.58394 227.29682 C 111.4631 227.18044 114.72288 228.1225 118.42687 231.5871 C 120.61097 233.63008 121.58225 235.12455 123.09284 238.76647 C 131.74106 259.61683 147.47577 276.77447 167.65165 287.3548 C 185.3699 296.64635 206.04773 300.08114 226.4606 297.1235 C 240.92462 295.0278 255.89375 288.99028 267.80178 280.4493 C 272.79004 276.8715 276.29424 273.8582 280.7273 269.33447 C 287.8885 262.02683 293.3215 254.51804 297.73074 245.83443 C 304.94937 231.61804 308.26324 217.79028 308.26324 201.88563 C 308.26324 190.73615 306.87873 182.00996 303.4552 171.58233 C 297.77216 154.27233 286.89735 138.55323 272.60008 126.9825 C 250.5458 109.13401 221.02765 101.89705 193.1403 107.5013 C 169.90314 112.17102 149.15817 125.27267 134.93286 144.26259 C 130.36158 150.36497 126.69859 156.75013 123.38869 164.38578 C 122.47397 166.49593 121.33517 168.78987 120.85799 169.4834 C 119.53686 171.4036 116.74975 173.8346 114.75858 174.80347 C 111.69533 176.29403 110.16979 176.53943 103.96673 176.53943 L 98.35604 176.53943 L 98.77081 174.75948 C 99.37231 172.17826 100.73139 167.58947 101.97997 163.92412 C 110.13982 139.96968 126.67497 118.6979 148.0276 104.68575 C 163.72602 94.38403 180.03464 88.47539 199.40848 86.07036 C 205.19267 85.35233 218.8967 85.35477 224.74902 86.07349 C 244.33428 88.48337 261.02222 94.59042 276.86824 105.14682 C 283.65475 109.66785 289.48815 114.55496 295.6653 120.89457 C 324.71987 150.71338 335.60266 194.13814 324.03215 234.08467 C 313.9666 268.8353 288.43397 296.96148 254.9395 310.1956 C 243.98127 314.52534 233.00447 317.0873 221.19198 318.07215 C 217.24333 318.4014 206.49453 318.39113 202.5383 318.0534 Z" fill="#1700b3"/>
        <path d="M 202.5383 318.0559 C 173.75353 315.60556 146.7419 302.5215 127.03764 281.48433 C 113.7797 267.3296 104.09325 249.7263 99.30011 231.07666 L 98.3486 227.3744 L 103.58394 227.29682 C 111.4631 227.18044 114.72288 228.1225 118.42687 231.5871 C 120.61097 233.63008 121.58225 235.12455 123.09284 238.76647 C 131.74106 259.61683 147.47577 276.77447 167.65165 287.3548 C 185.3699 296.64635 206.04773 300.08114 226.4606 297.1235 C 240.92462 295.0278 255.89375 288.99028 267.80178 280.4493 C 272.79004 276.8715 276.29424 273.8582 280.7273 269.33447 C 287.8885 262.02683 293.3215 254.51804 297.73074 245.83443 C 304.94937 231.61804 308.26324 217.79028 308.26324 201.88563 C 308.26324 190.73615 306.87873 182.00996 303.4552 171.58233 C 297.77216 154.27233 286.89735 138.55323 272.60008 126.9825 C 250.5458 109.13401 221.02765 101.89705 193.1403 107.5013 C 169.90314 112.17102 149.15817 125.27267 134.93286 144.26259 C 130.36158 150.36497 126.69859 156.75013 123.38869 164.38578 C 122.47397 166.49593 121.33517 168.78987 120.85799 169.4834 C 119.53686 171.4036 116.74975 173.8346 114.75858 174.80347 C 111.69533 176.29403 110.16979 176.53943 103.96673 176.53943 L 98.35604 176.53943 L 98.77081 174.75948 C 99.37231 172.17826 100.73139 167.58947 101.97997 163.92412 C 110.13982 139.96968 126.67497 118.6979 148.0276 104.68575 C 163.72602 94.38403 180.03464 88.47539 199.40848 86.07036 C 205.19267 85.35233 218.8967 85.35477 224.74902 86.07349 C 244.33428 88.48337 261.02222 94.59042 276.86824 105.14682 C 283.65475 109.66785 289.48815 114.55496 295.6653 120.89457 C 324.71987 150.71338 335.60266 194.13814 324.03215 234.08467 C 313.9666 268.8353 288.43397 296.96148 254.9395 310.1956 C 243.98127 314.52534 233.00447 317.0873 221.19198 318.07215 C 217.24333 318.4014 206.49453 318.39113 202.5383 318.0534 Z" stroke="#1700b3" stroke-linecap="butt" stroke-linejoin="round" stroke-width="2.530216"/>
      </g>
      <g id="Graphic_42">
        <title>path90937</title>
        <path d="M 192.4283 280.49825 C 187.9037 279.33802 183.03404 277.68343 180.14544 276.32482 L 178.39976 275.50377 L 218.3877 206.30002 C 240.38106 168.23799 258.53588 136.80667 258.73172 136.45272 C 259.08248 135.81878 259.1345 135.84587 262.21105 138.26479 C 263.92883 139.61542 267.3633 142.76286 269.8432 145.25912 C 274.14342 149.58775 274.3336 149.82676 273.95253 150.42435 C 273.7329 150.76898 256.59517 180.43049 235.86898 216.33885 C 200.7364 277.20628 198.13468 281.6256 197.44255 281.6102 C 197.03423 281.60083 194.77783 281.10075 192.4283 280.49825 Z" fill="#fc6d09"/>
        <path d="M 192.4283 280.49825 C 187.9037 279.33802 183.03404 277.68343 180.14544 276.32482 L 178.39976 275.50377 L 218.3877 206.30002 C 240.38106 168.23799 258.53588 136.80667 258.73172 136.45272 C 259.08248 135.81878 259.1345 135.84587 262.21105 138.26479 C 263.92883 139.61542 267.3633 142.76286 269.8432 145.25912 C 274.14342 149.58775 274.3336 149.82676 273.95253 150.42435 C 273.7329 150.76898 256.59517 180.43049 235.86898 216.33885 C 200.7364 277.20628 198.13468 281.6256 197.44255 281.6102 C 197.03423 281.60083 194.77783 281.10075 192.4283 280.49825 Z" stroke="#fc6d09" stroke-linecap="butt" stroke-linejoin="round" stroke-width="2.530216"/>
      </g>
    </g>
    <g id="CETL_Layer_2">
      <title>Layer 2</title>
      <g id="Line_38">
        <line x1="114.56722" y1="370.50097" x2="295.0402" y2="57" stroke="black" stroke-linecap="round" stroke-linejoin="round" stroke-dasharray="2.8894319804631774,1.4447159902315887,0.3611789975578972,1.4447159902315887" stroke-width=".361179"/>
      </g>
      <g id="Graphic_24">
        <path d="M 211.86958 201.48277 L 93.8758 264.22118 C 59.22633 199.055 83.96501 118.13845 149.13118 83.48898 C 205.61664 53.45513 275.46446 67.66583 315.72444 117.38277 L 211.86958 201.48277 Z" stroke="black" stroke-linecap="round" stroke-linejoin="round" stroke-width=".361179"/>
      </g>
      <g id="Graphic_3">
        <circle cx="212.32106" cy="201.57306" r="116.390117942725" stroke="black" stroke-linecap="round" stroke-linejoin="round" stroke-width=".361179"/>
      </g>
      <g id="Graphic_7">
        <circle cx="212.32106" cy="201.57306" r="92.9134455881025" stroke="black" stroke-linecap="round" stroke-linejoin="round" stroke-width=".361179"/>
      </g>
      <g id="Graphic_8">
        <path d="M 212.32106 201.57306 L 274.78138 253.9835 C 245.8359 288.47938 194.4065 292.97887 159.91063 264.0334 C 125.41474 235.0879 120.91525 183.65851 149.86074 149.16263 C 178.80622 114.66675 230.2356 110.16726 264.7315 139.11274 C 277.17783 149.55647 286.2202 163.4805 290.69864 179.09865 L 212.32106 201.57306 Z" stroke="black" stroke-linecap="round" stroke-linejoin="round" stroke-width=".361179"/>
      </g>
      <g id="Graphic_9">
        <path d="M 211.95988 201.57306 L 226.00575 257.90797 C 194.89284 265.6653 163.3823 246.73184 155.62497 215.61893 C 147.86765 184.50602 166.8011 152.99548 197.914 145.23816 C 219.09813 139.95636 241.45446 147.00529 255.77796 163.48259 L 211.95988 201.57306 Z" stroke="black" stroke-linecap="round" stroke-linejoin="round" stroke-width=".361179"/>
      </g>
      <g id="Line_17">
        <line x1="365.2878" y1="201.57306" x2="48.179287" y2="201.57306" stroke="black" stroke-linecap="round" stroke-linejoin="round" stroke-dasharray="2.8894319804631774,1.4447159902315887,0.3611789975578972,1.4447159902315887" stroke-width=".361179"/>
      </g>
      <g id="Line_22">
        <line x1="212.37434" y1="213.40168" x2="19" y2="213.40168" stroke="black" stroke-linecap="round" stroke-linejoin="round" stroke-width=".361179"/>
      </g>
      <g id="Line_23">
        <line x1="212.37434" y1="190.28622" x2="19" y2="190.28622" stroke="black" stroke-linecap="round" stroke-linejoin="round" stroke-width=".361179"/>
      </g>
      <g id="Line_27">
        <line x1="109.11416" y1="370.51214" x2="289.58713" y2="57.01117" stroke="black" stroke-linecap="round" stroke-linejoin="round" stroke-width=".361179"/>
      </g>
      <g id="Line_28">
        <line x1="121.75542" y1="370.51214" x2="302.2284" y2="57.01117" stroke="black" stroke-linecap="round" stroke-linejoin="round" stroke-width=".361179"/>
      </g>
      <g id="Line_29">
        <line x1="148.84385" y1="370.51214" x2="329.31682" y2="57.01117" stroke="black" stroke-linecap="round" stroke-linejoin="round" stroke-width=".361179"/>
      </g>
      <g id="Graphic_30">
        <path d="M 106.0685 248.74304 L 94.44756 228.615 C 105.56398 222.19693 119.77848 226.0057 126.19655 237.1221 C 129.27861 242.4604 130.11381 248.8044 128.51842 254.75848 L 106.0685 248.74304 Z" stroke="black" stroke-linecap="round" stroke-linejoin="round" stroke-width=".361179"/>
      </g>
      <g id="Graphic_31">
        <path d="M 111.84612 238.4419 L 94.09609 220.0612 C 104.24746 210.25814 120.42374 210.5405 130.22681 220.69187 C 140.02988 230.84325 139.74752 247.01952 129.59615 256.8226 C 123.48572 262.72337 114.84239 265.2018 106.53352 263.4357 L 111.84612 238.4419 Z" stroke="black" stroke-linecap="round" stroke-linejoin="round" stroke-width=".361179"/>
      </g>
      <g id="Line_32">
        <line x1="167.39788" y1="178.82063" x2="71.820586" y2="178.82063" stroke="black" stroke-linecap="round" stroke-linejoin="round" stroke-width=".361179"/>
      </g>
      <g id="Line_33">
        <line x1="167.39788" y1="225.14" x2="71.820586" y2="225.14" stroke="black" stroke-linecap="round" stroke-linejoin="round" stroke-width=".361179"/>
      </g>
      <g id="Graphic_34">
        <path d="M 111.84612 165.0654 L 99.07003 142.93658 C 111.29145 135.88054 126.91891 140.0679 133.97494 152.28932 C 141.03098 164.51074 136.84362 180.1382 124.6222 187.19424 C 114.46278 193.05978 101.61452 191.25408 93.46542 182.81544 L 111.84612 165.0654 Z" stroke="black" stroke-linecap="round" stroke-linejoin="round" stroke-width=".361179"/>
      </g>
      <g id="Graphic_35">
        <path d="M 106.88163 157.8266 L 123.80304 146.0383 C 130.31354 155.38374 128.01537 168.23751 118.66993 174.74801 C 109.66866 181.01875 97.3336 179.1451 90.60036 170.48435 L 106.88163 157.8266 Z" stroke="black" stroke-linecap="round" stroke-linejoin="round" stroke-width=".361179"/>
      </g>
      <g id="Graphic_43">
        <path d="M 242.98154 165.5469 C 239.63653 161.47471 235.52804 158.3479 230.65595 156.16636 C 225.78386 153.98483 220.14832 152.89408 213.74916 152.89408 C 207.35 152.89408 201.4236 154.13026 195.96976 156.60267 C 190.51593 159.07507 185.78935 162.52911 181.78988 166.9649 C 177.7904 171.40067 174.66358 176.67263 172.40933 182.78092 C 170.15508 188.8892 169.02798 195.50643 169.02798 202.63276 C 169.02798 209.90454 170.15508 216.5581 172.40933 222.59368 C 174.66358 228.62925 177.75404 233.86485 181.6808 238.30063 C 185.60756 242.73642 190.22506 246.19046 195.53346 248.66286 C 200.84185 251.13526 206.5501 252.37145 212.6584 252.37145 C 219.6393 252.37145 225.82022 250.9171 231.20133 248.0084 C 236.58244 245.0997 241.01816 241.02756 244.5086 235.79188 L 272.86838 256.95264 C 266.3238 266.11507 258.0341 272.87772 247.99904 277.2408 C 237.964 281.60385 227.63823 283.78535 217.02144 283.78535 C 204.9503 283.78535 193.82465 281.89472 183.64417 278.1134 C 173.46369 274.33207 164.66497 268.91468 157.24776 261.86106 C 149.83055 254.80744 144.04958 246.26324 139.90467 236.2282 C 135.75976 226.19314 133.68733 214.99478 133.68733 202.63276 C 133.68733 190.27075 135.75976 179.07239 139.90467 169.03734 C 144.04958 159.00229 149.83055 150.45808 157.24776 143.40446 C 164.66497 136.35084 173.46369 130.93345 183.64417 127.15213 C 193.82465 123.37081 204.9503 121.48018 217.02144 121.48018 C 221.3845 121.48018 225.9293 121.88012 230.65595 122.68001 C 235.3826 123.47991 240.03647 124.75245 244.61768 126.49768 C 249.1989 128.2429 253.59826 130.56983 257.8159 133.47854 C 262.03352 136.38725 265.81478 139.95037 269.1598 144.168 Z" fill="#1600b4"/>
        <path d="M 242.98154 165.5469 C 239.63653 161.47471 235.52804 158.3479 230.65595 156.16636 C 225.78386 153.98483 220.14832 152.89408 213.74916 152.89408 C 207.35 152.89408 201.4236 154.13026 195.96976 156.60267 C 190.51593 159.07507 185.78935 162.52911 181.78988 166.9649 C 177.7904 171.40067 174.66358 176.67263 172.40933 182.78092 C 170.15508 188.8892 169.02798 195.50643 169.02798 202.63276 C 169.02798 209.90454 170.15508 216.5581 172.40933 222.59368 C 174.66358 228.62925 177.75404 233.86485 181.6808 238.30063 C 185.60756 242.73642 190.22506 246.19046 195.53346 248.66286 C 200.84185 251.13526 206.5501 252.37145 212.6584 252.37145 C 219.6393 252.37145 225.82022 250.9171 231.20133 248.0084 C 236.58244 245.0997 241.01816 241.02756 244.5086 235.79188 L 272.86838 256.95264 C 266.3238 266.11507 258.0341 272.87772 247.99904 277.2408 C 237.964 281.60385 227.63823 283.78535 217.02144 283.78535 C 204.9503 283.78535 193.82465 281.89472 183.64417 278.1134 C 173.46369 274.33207 164.66497 268.91468 157.24776 261.86106 C 149.83055 254.80744 144.04958 246.26324 139.90467 236.2282 C 135.75976 226.19314 133.68733 214.99478 133.68733 202.63276 C 133.68733 190.27075 135.75976 179.07239 139.90467 169.03734 C 144.04958 159.00229 149.83055 150.45808 157.24776 143.40446 C 164.66497 136.35084 173.46369 130.93345 183.64417 127.15213 C 193.82465 123.37081 204.9503 121.48018 217.02144 121.48018 C 221.3845 121.48018 225.9293 121.88012 230.65595 122.68001 C 235.3826 123.47991 240.03647 124.75245 244.61768 126.49768 C 249.1989 128.2429 253.59826 130.56983 257.8159 133.47854 C 262.03352 136.38725 265.81478 139.95037 269.1598 144.168 Z" stroke="white" stroke-linecap="round" stroke-linejoin="round" stroke-width="5.778864"/>
      </g>
      <g id="Graphic_44">
        <path d="M 357.29325 125.40691 L 462.2244 125.40691 L 462.2244 156.82082 L 391.325 156.82082 L 391.325 185.6169 L 458.2977 185.6169 L 458.2977 217.0308 L 391.325 217.0308 L 391.325 248.4447 L 466.15116 248.4447 L 466.15116 279.8586 L 357.29325 279.8586 Z" fill="#1600b4"/>
      </g>
      <g id="Graphic_45">
        <path d="M 523.307 155.5119 L 479.2403 155.5119 L 479.2403 125.40691 L 601.4055 125.40691 L 601.4055 155.5119 L 557.33874 155.5119 L 557.33874 279.8586 L 523.307 279.8586 Z" fill="#1600b4"/>
      </g>
      <g id="Graphic_46">
        <path d="M 619.9484 125.40691 L 653.9801 125.40691 L 653.9801 248.4447 L 717.0261 248.4447 L 717.0261 279.8586 L 619.9484 279.8586 Z" fill="#1600b4"/>
      </g>
    </g>
  </g>
</svg>
