<?xml version="1.0" encoding="UTF-8" standalone="no"?>
<!DOCTYPE svg PUBLIC "-//W3C//DTD SVG 1.1//EN" "http://www.w3.org/Graphics/SVG/1.1/DTD/svg11.dtd">
<svg xmlns="http://www.w3.org/2000/svg" xmlns:dc="http://purl.org/dc/elements/1.1/" xmlns:xl="http://www.w3.org/1999/xlink" version="1.1" viewBox="909 520 600 600" width="600" height="600">
  <defs/>
  <g id="SVG" fill="none" stroke="none" stroke-opacity="1" stroke-dasharray="none" fill-opacity="1">
    <title>SVG</title>
    <g id="SVG_flashing">
      <title>flashing</title>
      <g id="Graphic_8">
        <path d="M 1405.4473 632.02605 C 1509.7177 736.296 1509.7177 905.3507 1405.4473 1009.6207 C 1301.1774 1113.8911 1132.1226 1113.8911 1027.8527 1009.6207 C 923.5823 905.3507 923.5823 736.296 1027.8527 632.02605 C 1132.1226 527.7556 1301.1774 527.7556 1405.4473 632.02605" fill="white"/>
        <path d="M 1405.4473 632.02605 C 1509.7177 736.296 1509.7177 905.3507 1405.4473 1009.6207 C 1301.1774 1113.8911 1132.1226 1113.8911 1027.8527 1009.6207 C 923.5823 905.3507 923.5823 736.296 1027.8527 632.02605 C 1132.1226 527.7556 1301.1774 527.7556 1405.4473 632.02605" stroke="white" stroke-linecap="round" stroke-linejoin="round" stroke-width="1"/>
      </g>
    </g>
    <g id="SVG_Layer_1">
      <title>Layer 1</title>
      <g id="Graphic_5">
        <title>path90822</title>
        <path d="M 1115.3245 947.1254 C 1108.3375 941.7379 1097.2766 931.0344 1091.0479 923.633 C 1080.5028 911.1026 1070.5663 894.159 1064.15 877.7667 C 1060.5757 868.6354 1058.6129 864.8512 1055.1009 860.3207 C 1047.4859 850.4975 1036.6223 843.9757 1024.2129 841.7777 C 1022.1111 841.4056 1007.596 841.1861 985.0452 841.1861 L 949.2169 841.1861 L 948.8522 834.8549 C 948.3848 826.7387 948.3823 814.8593 948.8465 807.2681 L 949.2107 801.3139 L 985.8489 801.0963 L 1022.4871 800.8787 L 1027.9357 799.4079 C 1037.3157 796.876 1045.3495 792.1555 1051.7837 785.3953 C 1057.6745 779.20615 1059.6069 775.8457 1064.6849 762.9607 C 1079.3827 725.66584 1106.7511 695.5964 1142.0598 677.9496 C 1183.9548 657.011 1231.9192 655.241 1275.0351 673.0425 L 1280.5245 675.3089 L 1279.4688 677.0673 C 1278.596 678.5213 1260.7209 709.56985 1260.5816 709.87395 C 1260.5569 709.9296 1256.8665 708.7345 1252.3794 707.2249 C 1238.7635 702.6443 1228.8351 701.05535 1213.831 701.05535 C 1199.1236 701.05535 1189.1672 702.62084 1175.8436 707.02826 C 1128.1806 722.79506 1095.6385 766.3306 1093.8413 816.7326 C 1092.8538 844.4259 1101.1442 870.9627 1117.7729 893.3365 C 1121.468 898.308 1133.2089 910.5035 1138.3114 914.6701 L 1141.0178 916.88 L 1131.127 934.0068 C 1125.6871 943.4266 1121.1663 951.2035 1121.0808 951.289 C 1120.9955 951.3743 1118.405 949.501 1115.3244 947.1257 Z" fill="#1700b3"/>
        <path d="M 1115.3245 947.1254 C 1108.3375 941.7379 1097.2766 931.0344 1091.0479 923.633 C 1080.5028 911.1026 1070.5663 894.159 1064.15 877.7667 C 1060.5757 868.6354 1058.6129 864.8512 1055.1009 860.3207 C 1047.4859 850.4975 1036.6223 843.9757 1024.2129 841.7777 C 1022.1111 841.4056 1007.596 841.1861 985.0452 841.1861 L 949.2169 841.1861 L 948.8522 834.8549 C 948.3848 826.7387 948.3823 814.8593 948.8465 807.2681 L 949.2107 801.3139 L 985.8489 801.0963 L 1022.4871 800.8787 L 1027.9357 799.4079 C 1037.3157 796.876 1045.3495 792.1555 1051.7837 785.3953 C 1057.6745 779.20615 1059.6069 775.8457 1064.6849 762.9607 C 1079.3827 725.66584 1106.7511 695.5964 1142.0598 677.9496 C 1183.9548 657.011 1231.9192 655.241 1275.0351 673.0425 L 1280.5245 675.3089 L 1279.4688 677.0673 C 1278.596 678.5213 1260.7209 709.56985 1260.5816 709.87395 C 1260.5569 709.9296 1256.8665 708.7345 1252.3794 707.2249 C 1238.7635 702.6443 1228.8351 701.05535 1213.831 701.05535 C 1199.1236 701.05535 1189.1672 702.62084 1175.8436 707.02826 C 1128.1806 722.79506 1095.6385 766.3306 1093.8413 816.7326 C 1092.8538 844.4259 1101.1442 870.9627 1117.7729 893.3365 C 1121.468 898.308 1133.2089 910.5035 1138.3114 914.6701 L 1141.0178 916.88 L 1131.127 934.0068 C 1125.6871 943.4266 1121.1663 951.2035 1121.0808 951.289 C 1120.9955 951.3743 1118.405 949.501 1115.3244 947.1257 Z" stroke="#1700b3" stroke-linecap="butt" stroke-linejoin="round" stroke-width="5"/>
      </g>
      <g id="Graphic_4">
        <title>path90861</title>
        <path d="M 1194.9781 1050.4919 C 1138.096 1045.6498 1084.7179 1019.7941 1045.78 978.2223 C 1019.5808 950.2509 1000.4392 915.4647 990.9674 878.6109 L 989.0871 871.2948 L 999.4328 871.1415 C 1015.0029 870.9115 1021.4446 872.7731 1028.7641 879.6195 C 1033.0802 883.6567 1034.9995 886.61 1037.9846 893.8068 C 1055.0745 935.0095 1086.1681 968.915 1126.038 989.823 C 1161.0513 1008.1842 1201.9131 1014.9717 1242.2513 1009.1271 C 1270.8339 1004.9857 1300.4146 993.0549 1323.9463 976.1769 C 1333.8037 969.1068 1340.7284 963.1521 1349.4886 954.2127 C 1363.64 939.772 1374.3762 924.9338 1383.0894 907.7739 C 1397.3542 879.6807 1403.9028 852.3554 1403.9028 820.926 C 1403.9028 798.8933 1401.1669 781.6494 1394.4016 761.0432 C 1383.1712 726.8366 1361.6813 695.77385 1333.4283 672.90875 C 1289.8465 637.6381 1231.5152 623.337 1176.4065 634.4116 C 1130.4872 643.6395 1089.4928 669.5299 1061.3819 707.0562 C 1052.3485 719.1152 1045.11 731.733 1038.5693 746.822 C 1036.7617 750.9919 1034.5113 755.52495 1033.5683 756.8955 C 1030.9576 760.69 1025.45 765.4939 1021.5152 767.4085 C 1015.4618 770.35405 1012.4472 770.839 1000.1892 770.839 L 989.1019 770.839 L 989.9215 767.3216 C 991.1101 762.2208 993.7958 753.1528 996.2632 745.9097 C 1012.388 698.5729 1045.0633 656.5374 1087.2586 628.8478 C 1118.2805 608.4904 1150.5082 596.8142 1188.7932 592.0616 C 1200.2234 590.6427 1227.3042 590.6475 1238.869 592.0678 C 1277.5718 596.83 1310.5491 608.8982 1341.8627 629.7589 C 1355.2736 638.693 1366.801 648.3505 1379.0078 660.8783 C 1436.423 719.8037 1457.9287 805.6161 1435.064 884.555 C 1415.1733 953.2263 1364.7179 1008.8069 1298.5289 1034.9591 C 1276.8742 1043.5151 1255.1828 1048.5779 1231.8399 1050.524 C 1224.0369 1051.1747 1202.796 1051.1544 1194.9781 1050.487 Z" fill="#1700b3"/>
        <path d="M 1194.9781 1050.4919 C 1138.096 1045.6498 1084.7179 1019.7941 1045.78 978.2223 C 1019.5808 950.2509 1000.4392 915.4647 990.9674 878.6109 L 989.0871 871.2948 L 999.4328 871.1415 C 1015.0029 870.9115 1021.4446 872.7731 1028.7641 879.6195 C 1033.0802 883.6567 1034.9995 886.61 1037.9846 893.8068 C 1055.0745 935.0095 1086.1681 968.915 1126.038 989.823 C 1161.0513 1008.1842 1201.9131 1014.9717 1242.2513 1009.1271 C 1270.8339 1004.9857 1300.4146 993.0549 1323.9463 976.1769 C 1333.8037 969.1068 1340.7284 963.1521 1349.4886 954.2127 C 1363.64 939.772 1374.3762 924.9338 1383.0894 907.7739 C 1397.3542 879.6807 1403.9028 852.3554 1403.9028 820.926 C 1403.9028 798.8933 1401.1669 781.6494 1394.4016 761.0432 C 1383.1712 726.8366 1361.6813 695.77385 1333.4283 672.90875 C 1289.8465 637.6381 1231.5152 623.337 1176.4065 634.4116 C 1130.4872 643.6395 1089.4928 669.5299 1061.3819 707.0562 C 1052.3485 719.1152 1045.11 731.733 1038.5693 746.822 C 1036.7617 750.9919 1034.5113 755.52495 1033.5683 756.8955 C 1030.9576 760.69 1025.45 765.4939 1021.5152 767.4085 C 1015.4618 770.35405 1012.4472 770.839 1000.1892 770.839 L 989.1019 770.839 L 989.9215 767.3216 C 991.1101 762.2208 993.7958 753.1528 996.2632 745.9097 C 1012.388 698.5729 1045.0633 656.5374 1087.2586 628.8478 C 1118.2805 608.4904 1150.5082 596.8142 1188.7932 592.0616 C 1200.2234 590.6427 1227.3042 590.6475 1238.869 592.0678 C 1277.5718 596.83 1310.5491 608.8982 1341.8627 629.7589 C 1355.2736 638.693 1366.801 648.3505 1379.0078 660.8783 C 1436.423 719.8037 1457.9287 805.6161 1435.064 884.555 C 1415.1733 953.2263 1364.7179 1008.8069 1298.5289 1034.9591 C 1276.8742 1043.5151 1255.1828 1048.5779 1231.8399 1050.524 C 1224.0369 1051.1747 1202.796 1051.1544 1194.9781 1050.487 Z" stroke="#1700b3" stroke-linecap="butt" stroke-linejoin="round" stroke-width="5"/>
      </g>
      <g id="Graphic_3">
        <title>path90937</title>
        <path d="M 1174.9995 976.2737 C 1166.0584 973.9809 1156.4354 970.7112 1150.7272 968.0265 L 1147.2775 966.404 L 1226.2983 829.6493 C 1269.7598 754.4344 1305.6358 692.3224 1306.0228 691.623 C 1306.716 690.37025 1306.8187 690.4238 1312.8984 695.20385 C 1316.2929 697.87286 1323.0798 704.09256 1327.9804 709.02545 C 1336.4781 717.5793 1336.8539 718.05164 1336.1009 719.23255 C 1335.6669 719.9136 1301.8007 778.5282 1260.8434 849.4873 C 1191.4173 969.7684 1186.276 978.5015 1184.9083 978.471 C 1184.1014 978.4525 1179.6425 977.4643 1174.9995 976.2737 Z" fill="#fc6d09"/>
        <path d="M 1174.9995 976.2737 C 1166.0584 973.9809 1156.4354 970.7112 1150.7272 968.0265 L 1147.2775 966.404 L 1226.2983 829.6493 C 1269.7598 754.4344 1305.6358 692.3224 1306.0228 691.623 C 1306.716 690.37025 1306.8187 690.4238 1312.8984 695.20385 C 1316.2929 697.87286 1323.0798 704.09256 1327.9804 709.02545 C 1336.4781 717.5793 1336.8539 718.05164 1336.1009 719.23255 C 1335.6669 719.9136 1301.8007 778.5282 1260.8434 849.4873 C 1191.4173 969.7684 1186.276 978.5015 1184.9083 978.471 C 1184.1014 978.4525 1179.6425 977.4643 1174.9995 976.2737 Z" stroke="#fc6d09" stroke-linecap="butt" stroke-linejoin="round" stroke-width="5"/>
      </g>
    </g>
  </g>
</svg>
