<?xml version="1.0" encoding="UTF-8"?>
<svg xmlns="http://www.w3.org/2000/svg" xmlns:xlink="http://www.w3.org/1999/xlink" width="51" height="51" viewBox="0 0 51 51" version="1.1">
<g id="surface1">
<path style="fill-rule:nonzero;fill:rgb(100%,100%,100%);fill-opacity:1;stroke-width:1;stroke-linecap:round;stroke-linejoin:round;stroke:rgb(100%,100%,100%);stroke-opacity:1;stroke-miterlimit:4;" d="M 1405.461397 632.040441 C 1509.735294 736.314338 1509.735294 905.340074 1405.461397 1009.613971 C 1301.1875 1113.887868 1132.115809 1113.887868 1027.841912 1009.613971 C 923.568015 905.340074 923.568015 736.314338 1027.841912 632.040441 C 1132.115809 527.766544 1301.1875 527.766544 1405.461397 632.040441 " transform="matrix(0.085,0,0,0.085,-77.265,-44.2)"/>
<path style="fill-rule:nonzero;fill:rgb(9.019608%,0%,70.19608%);fill-opacity:1;stroke-width:5;stroke-linecap:butt;stroke-linejoin:round;stroke:rgb(9.019608%,0%,70.19608%);stroke-opacity:1;stroke-miterlimit:4;" d="M 1115.341912 947.113971 C 1108.356618 941.737132 1097.28125 931.029412 1091.03125 923.630515 C 1080.507353 911.084559 1070.580882 894.172794 1064.147059 877.766544 C 1060.5625 868.621324 1058.632353 864.852941 1055.09375 860.303309 C 1047.465074 850.514706 1036.619485 843.988971 1024.211397 841.783088 C 1022.097426 841.415441 1007.575368 841.185662 985.056985 841.185662 L 949.211397 841.185662 L 948.84375 834.84375 C 948.384191 826.755515 948.384191 814.852941 948.84375 807.270221 L 949.211397 801.295956 L 985.838235 801.112132 L 1022.465074 800.882353 L 1027.933824 799.411765 C 1037.308824 796.884191 1045.351103 792.150735 1051.784926 785.395221 C 1057.667279 779.191176 1059.597426 775.836397 1064.698529 762.96875 C 1079.404412 725.652574 1106.748162 695.597426 1142.042279 677.950368 C 1183.954044 656.994485 1231.931985 655.248162 1275.038603 673.033088 L 1280.507353 675.330882 L 1279.450368 677.077206 C 1278.577206 678.501838 1260.700368 709.568015 1260.5625 709.889706 C 1260.5625 709.935662 1256.886029 708.740809 1252.382353 707.224265 C 1238.779412 702.628676 1228.852941 701.066176 1213.825368 701.066176 C 1199.119485 701.066176 1189.147059 702.628676 1175.865809 707.040441 C 1128.163603 722.803309 1095.626838 766.323529 1093.834559 816.737132 C 1092.869485 844.448529 1101.141544 870.965074 1117.777574 893.345588 C 1121.454044 898.308824 1133.21875 910.487132 1138.319853 914.669118 L 1141.03125 916.875 L 1131.104779 934.016544 C 1125.681985 943.4375 1121.178309 951.204044 1121.086397 951.295956 C 1120.994485 951.387868 1118.420956 949.503676 1115.341912 947.113971 Z M 1115.341912 947.113971 " transform="matrix(0.085,0,0,0.085,-77.265,-44.2)"/>
<path style="fill-rule:nonzero;fill:rgb(9.019608%,0%,70.19608%);fill-opacity:1;stroke-width:5;stroke-linecap:butt;stroke-linejoin:round;stroke:rgb(9.019608%,0%,70.19608%);stroke-opacity:1;stroke-miterlimit:4;" d="M 1194.983456 1050.514706 C 1138.090074 1045.643382 1084.735294 1019.816176 1045.764706 978.226103 C 1019.569853 950.238971 1000.452206 915.450368 990.985294 878.59375 L 989.101103 871.286765 L 999.441176 871.148897 C 1015.020221 870.919118 1021.454044 872.757353 1028.761029 879.604779 C 1033.080882 883.648897 1035.011029 886.590074 1037.998162 893.805147 C 1055.09375 935.027574 1086.159926 968.897059 1126.049632 989.806985 C 1161.068015 1008.189338 1201.922794 1014.990809 1242.272059 1009.108456 C 1270.856618 1004.972426 1300.40625 993.069853 1323.935662 976.158088 C 1333.816176 969.126838 1340.709559 963.152574 1349.487132 954.191176 C 1363.641544 939.761029 1374.395221 924.917279 1383.080882 907.775735 C 1397.373162 879.696691 1403.898897 852.352941 1403.898897 820.919118 C 1403.898897 798.90625 1401.1875 781.626838 1394.386029 761.038603 C 1383.172794 726.847426 1361.665441 695.78125 1333.448529 672.895221 C 1289.836397 637.647059 1231.518382 623.354779 1176.417279 634.430147 C 1130.507353 643.621324 1089.514706 669.540441 1061.389706 707.040441 C 1052.336397 719.126838 1045.121324 731.71875 1038.549632 746.838235 C 1036.757353 750.974265 1034.505515 755.523897 1033.586397 756.902574 C 1030.966912 760.670956 1025.452206 765.496324 1021.5 767.426471 C 1015.479779 770.367647 1012.446691 770.827206 1000.176471 770.827206 L 989.101103 770.827206 L 989.928309 767.334559 C 991.123162 762.233456 993.788603 753.134191 996.270221 745.919118 C 1012.400735 698.584559 1045.075368 656.534926 1087.262868 628.869485 C 1118.283088 608.511029 1150.498162 596.792279 1188.779412 592.058824 C 1200.222426 590.634191 1227.290441 590.634191 1238.871324 592.058824 C 1277.566176 596.838235 1310.5625 608.878676 1341.858456 629.742647 C 1355.277574 638.704044 1366.8125 648.354779 1378.990809 660.900735 C 1436.435662 719.816176 1457.943015 805.615809 1435.056985 884.568015 C 1415.158088 953.226103 1364.698529 1008.786765 1298.522059 1034.981618 C 1276.876838 1043.529412 1255.185662 1048.584559 1231.840074 1050.514706 C 1224.027574 1051.158088 1202.795956 1051.158088 1194.983456 1050.46875 Z M 1194.983456 1050.514706 " transform="matrix(0.085,0,0,0.085,-77.265,-44.2)"/>
<path style="fill-rule:nonzero;fill:rgb(98.823529%,42.745098%,3.529412%);fill-opacity:1;stroke-width:5;stroke-linecap:butt;stroke-linejoin:round;stroke:rgb(98.823529%,42.745098%,3.529412%);stroke-opacity:1;stroke-miterlimit:4;" d="M 1174.992647 976.295956 C 1166.077206 973.998162 1156.426471 970.689338 1150.727941 968.023897 L 1147.28125 966.415441 L 1226.279412 829.650735 C 1269.753676 754.420956 1305.645221 692.334559 1306.012868 691.645221 C 1306.702206 690.358456 1306.840074 690.404412 1312.90625 695.183824 C 1316.306985 697.895221 1323.0625 704.099265 1327.979779 709.016544 C 1336.481618 717.564338 1336.849265 718.069853 1336.113971 719.21875 C 1335.654412 719.908088 1301.784926 778.547794 1260.838235 849.503676 C 1191.398897 969.770221 1186.297794 978.501838 1184.919118 978.455882 C 1184.091912 978.455882 1179.634191 977.444853 1174.992647 976.295956 Z M 1174.992647 976.295956 " transform="matrix(0.085,0,0,0.085,-77.265,-44.2)"/>
</g>
</svg>
